<svg xmlns="http://www.w3.org/2000/svg" width="19" height="19" viewBox="0 0 19 19"><g><g><path d="M17.417 17.417H1.583v-.842c0-.564.343-1.07.874-1.287l4.2-1.724a2.172 2.172 0 0 0 1.356-2.013v-.981c0-.489-.166-.965-.468-1.34C6.7 8.176 6.173 6.629 6.173 5.192c0-2.66 1.719-3.609 3.327-3.609 1.608 0 3.327.948 3.327 3.609 0 1.437-.526 2.984-1.372 4.038a2.146 2.146 0 0 0-.468 1.34v.981c0 .885.533 1.675 1.357 2.013l4.199 1.724c.53.218.874.723.874 1.287zm-.273-3.594L12.945 12.1a.594.594 0 0 1-.374-.549v-.981c0-.13.042-.253.118-.349C13.767 8.88 14.41 7 14.41 5.191 14.41 2.087 12.437 0 9.5 0 6.563 0 4.59 2.086 4.59 5.192c0 1.808.643 3.688 1.72 5.03.077.095.12.219.12.348v.981c0 .24-.148.455-.375.549l-4.199 1.723A2.97 2.97 0 0 0 0 16.575v1.633c0 .438.354.792.792.792h17.416a.792.792 0 0 0 .792-.792v-1.633a2.97 2.97 0 0 0-1.856-2.752z"/></g></g></svg>