<svg xmlns="http://www.w3.org/2000/svg" width="18" height="12" viewBox="0 0 18 12"><g><g><path d="M17.02 8.748h-.741a1.995 1.995 0 0 0-.076-.218c0-.025 0-.056-.03-.086a2.031 2.031 0 0 0-.174-.32l-.055-.071a2.032 2.032 0 0 0-.173-.209l-.097-.086a2.033 2.033 0 0 0-.182-.147l-.117-.076a2.033 2.033 0 0 0-.203-.112l-.127-.056a2.033 2.033 0 0 0-.244-.076l-.117-.03a1.905 1.905 0 0 0-.762 0l-.117.03c-.082.02-.164.046-.243.076l-.127.056a2.03 2.03 0 0 0-.209.112l-.111.076a2.031 2.031 0 0 0-.188.152l-.092.081c-.068.072-.13.148-.188.229l-.04.05a2.032 2.032 0 0 0-.178.326s0 .05-.025.076a2.03 2.03 0 0 0-.077.223H12.1V6.85h2.128c.28 0 .508-.227.508-.508V4.985l2.24 1.844zm-2.676 1.524a1.016 1.016 0 1 1 .706-.284 1.016 1.016 0 0 1-.742.284zm-10.158 0a1.016 1.016 0 1 1 .706-.284 1.016 1.016 0 0 1-.742.284zM1.052.968h10.041v7.79H6.121a1.997 1.997 0 0 0-.076-.218c0-.025 0-.056-.03-.086a2.031 2.031 0 0 0-.173-.32l-.056-.071a2.032 2.032 0 0 0-.173-.208l-.097-.087a2.033 2.033 0 0 0-.182-.147l-.117-.076a2.033 2.033 0 0 0-.203-.112l-.127-.056a2.033 2.033 0 0 0-.244-.076l-.117-.03a1.905 1.905 0 0 0-.762 0l-.117.03a2.03 2.03 0 0 0-.243.076l-.127.056c-.072.033-.141.07-.209.112l-.111.076a2.031 2.031 0 0 0-.188.152l-.092.082c-.068.071-.13.147-.188.228l-.04.05a2.032 2.032 0 0 0-.178.326s0 .05-.025.076c-.03.073-.055.148-.077.224H1.017zM13.75 4.416v1.417h-1.64V4.416zm4.064 1.778l-3.256-2.677a.508.508 0 0 0-.122-.076.508.508 0 0 0-.167-.036h-2.159V.46a.508.508 0 0 0-.508-.508H.51A.508.508 0 0 0 0 .46v8.807c0 .28.227.507.508.507h1.686a2.032 2.032 0 0 0 3.91 0h6.248a2.032 2.032 0 0 0 3.91 0h1.23c.28 0 .508-.227.508-.507V6.585a.508.508 0 0 0-.188-.391z"/></g></g></svg>