<svg xmlns="http://www.w3.org/2000/svg" width="18" height="14" viewBox="0 0 18 14"><g><g><g><path d="M15.017 4.612c.365 0 .704.192.89.507l.821 1.415h-5.065V4.612zm1.49 6.668a2.17 2.17 0 0 0-4.237 0h-.607V7.468h5.392v3.812zm-2.119 1.705a1.238 1.238 0 1 1 0-2.477 1.238 1.238 0 0 1 0 2.477zm-9.84 0a1.238 1.238 0 1 1 0-2.477 1.238 1.238 0 0 1 0 2.477zM.934 10.626v-8.13c0-.36.292-.653.653-.653h8.489c.36 0 .653.292.653.653v8.778H6.667a2.17 2.17 0 0 0-4.237 0h-.84a.654.654 0 0 1-.656-.648zM10.076.91H1.587A1.59 1.59 0 0 0 0 2.496v8.13a1.59 1.59 0 0 0 1.587 1.588h.84a2.17 2.17 0 0 0 4.238 0h5.603a2.17 2.17 0 0 0 4.238 0H18V7.53c0-.444-.117-.881-.34-1.266l-.934-1.615a1.967 1.967 0 0 0-1.709-.971h-3.361V2.502a1.59 1.59 0 0 0-1.58-1.593z"/></g><g><path d="M5.883 3.778a2.206 2.206 0 1 1 .004 4.41 2.206 2.206 0 0 1-.004-4.41zm0 5.343a3.14 3.14 0 1 0 .004-6.28 3.14 3.14 0 0 0-.004 6.28z"/></g><g><path d="M5.855 6.538h.96a.467.467 0 1 0 0-.934h-.493v-.77a.467.467 0 0 0-.934 0V6.07a.467.467 0 0 0 .467.469z"/></g></g></g></svg>