<svg xmlns="http://www.w3.org/2000/svg" width="53" height="67" viewBox="0 0 53 67">
  <g>
    <g>
      <g>
        <path d="M48.389 63.278H3.722V3.722h33.5v9.306c0 1.042.82 1.86 1.861 1.86h9.306zM40.944 4.467l6.7 6.7h-6.7zm11.167 60.672V11.167c0-.521-.223-.968-.521-1.34L42.284.52C41.912.223 41.466 0 40.944 0H1.861A1.843 1.843 0 0 0 0 1.861V65.14C0 66.18.819 67 1.861 67H50.25a1.843 1.843 0 0 0 1.861-1.861z" fill="#e5e5e5"/>
      </g>
      <g>
        <path d="M39.083 29.778H13.028a1.843 1.843 0 0 0-1.861 1.86c0 1.043.819 1.862 1.86 1.862h26.056a1.843 1.843 0 0 0 1.861-1.861 1.843 1.843 0 0 0-1.86-1.861z" fill="#e5e5e5"/>
      </g>
      <g>
        <path d="M13.028 22.333a1.843 1.843 0 0 0-1.861 1.861c0 1.043.819 1.862 1.86 1.862h26.056a1.843 1.843 0 0 0 1.861-1.862 1.843 1.843 0 0 0-1.86-1.86z" fill="#e5e5e5"/>
      </g>
      <g>
        <path d="M39.083 37.222H13.028a1.843 1.843 0 0 0-1.861 1.861c0 1.043.819 1.861 1.86 1.861h26.056a1.843 1.843 0 0 0 1.861-1.86 1.843 1.843 0 0 0-1.86-1.862z" fill="#e5e5e5"/>
      </g>
      <g>
        <path d="M39.083 44.667H13.028a1.843 1.843 0 0 0-1.861 1.86c0 1.043.819 1.862 1.86 1.862h26.056a1.843 1.843 0 0 0 1.861-1.861 1.843 1.843 0 0 0-1.86-1.861z" fill="#e5e5e5"/>
      </g>
      <g>
        <path d="M39.083 52.111H13.028a1.843 1.843 0 0 0-1.861 1.861c0 1.042.819 1.861 1.86 1.861h26.056a1.843 1.843 0 0 0 1.861-1.86 1.843 1.843 0 0 0-1.86-1.862z" fill="#e5e5e5"/>
      </g>
    </g>
  </g>
</svg>
