<svg xmlns="http://www.w3.org/2000/svg" width="31" height="67" viewBox="0 0 31 67">
  <g>
    <g>
      <g>
        <path d="M2.233 37.967h25.684v21.216a5.59 5.59 0 0 1-5.584 5.584H7.817a5.59 5.59 0 0 1-5.584-5.584zM6.7 33.962l2.233-2.233v4.004H6.7zm0-15.88l1.117-2.793 1.116 2.792v.902H6.7zm0 9.18l2.233-2.233v3.542L6.7 30.804zm2.233-5.391L6.7 24.104v-2.887h2.233zm6.7-19.638h7.817v2.234h-5.583V6.7h5.583v2.233H20.1v2.234h3.35V13.4h-5.583v2.233h5.583v2.234H20.1V20.1h3.35v2.233h-5.583v2.234h5.583V26.8H20.1v2.233h3.35v2.234h-5.583V33.5h5.583v2.233h-7.817zM22.333 67a7.826 7.826 0 0 0 7.817-7.817V36.85c0-.617-.5-1.117-1.117-1.117h-3.35V1.117C25.683.5 25.183 0 24.567 0h-10.05C13.9 0 13.4.5 13.4 1.117v34.616h-2.233V17.867a1.13 1.13 0 0 0-.08-.416l-2.233-5.583a1.117 1.117 0 0 0-2.075 0L4.546 17.45a1.13 1.13 0 0 0-.08.416v17.866h-3.35C.5 35.733 0 36.233 0 36.85v22.333A7.826 7.826 0 0 0 7.817 67z"  fill="#e5e5e5" />
      </g>
      <g>
        <path d="M11.167 44.667v3.35h-3.35v-3.35zm11.166 3.35h-3.35v-3.35h3.35zm-1.187 11.166h-2.163v-3.35h3.35v2.234a1.183 1.183 0 0 1-1.187 1.116zm-7.746-3.35h3.35v3.35H13.4zM11.167 53.6h-3.35v-3.35h3.35zm7.816-3.35h3.35v3.35h-3.35zM13.4 48.017v-3.35h3.35v3.35zm3.35 2.233v3.35H13.4v-3.35zm-8.933 7.817v-2.234h3.35v3.35H8.933c-.616 0-1.116-.5-1.116-1.116zm13.33 3.35a3.39 3.39 0 0 0 3.42-3.35V43.55c0-.617-.5-1.117-1.117-1.117H6.7c-.617 0-1.117.5-1.117 1.117v14.517c0 1.85 1.5 3.35 3.35 3.35z" fill="#e5e5e5" />
      </g>
    </g>
  </g>
</svg>
