<svg xmlns="http://www.w3.org/2000/svg" width="22" height="16" viewBox="0 0 22 16"><g><g><g><g><path d="M7.118 5.897a1.988 1.988 0 1 1 0-3.976 1.988 1.988 0 0 1 0 3.976zm0-5.686a3.678 3.678 0 0 0-3.579 2.843H.845a.845.845 0 0 0 0 1.69h2.694a3.678 3.678 0 0 0 7.158 0h10.458a.845.845 0 1 0 0-1.69H10.697A3.678 3.678 0 0 0 7.117.211z"/></g><g><path d="M14.912 14.129a1.988 1.988 0 1 1 0-3.977 1.988 1.988 0 0 1 0 3.977zm0-5.667a3.678 3.678 0 0 0-3.579 2.844H.845a.845.845 0 0 0 0 1.69h10.458a3.678 3.678 0 0 0 7.158 0h2.694a.845.845 0 0 0 0-1.69h-2.694a3.678 3.678 0 0 0-3.55-2.844z"/></g></g></g></g></svg>