<svg xmlns="http://www.w3.org/2000/svg" width="17" height="17" viewBox="0 0 17 17" class="heart"><path d="M8.257 14.895c-2.27-2.079-6.882-6.876-6.882-9.662 0-2.128 1.546-3.858 3.446-3.858 1.135 0 2.198.628 2.843 1.68a.687.687 0 0 0 1.172 0c.645-1.052 1.708-1.68 2.843-1.68 1.9 0 3.446 1.73 3.446 3.858 0 2.946-4.598 7.643-6.868 9.662zM11.68 0C10.375 0 9.147.567 8.25 1.554 7.353.568 6.125 0 4.82 0 2.164 0 0 2.347 0 5.233 0 9.445 7.478 16.05 7.797 16.329a.686.686 0 0 0 .897.008c.32-.27 7.806-6.664 7.806-11.104C16.5 2.347 14.337 0 11.68 0z"/></svg>