<svg xmlns="http://www.w3.org/2000/svg" width="15" height="15" viewBox="0 0 15 15"><g><g><path fill="#b2b2b2" d="M7.5 1.443l4.895 4.132v8.175h-2.248V8.613a.625.625 0 0 0-.625-.625H5.478a.625.625 0 0 0-.625.625v5.137H2.605V5.575zM6.103 13.75V9.238h2.794v4.512zM1.028 6.906l.327-.276v7.745c0 .345.28.625.625.625h11.04c.345 0 .625-.28.625-.625V6.63l.327.276a.623.623 0 0 0 .88-.074.625.625 0 0 0-.074-.88l-3-2.534V1.04a.625.625 0 0 0-1.25 0v1.324L7.903.147a.625.625 0 0 0-.806 0L.222 5.951a.625.625 0 1 0 .806.955z"/></g></g></svg>