<svg xmlns="http://www.w3.org/2000/svg" width="18" height="18" viewBox="0 0 18 18"><g><g><path fill="#c5c5c5" d="M16.118 12.287a3.453 3.453 0 0 1-3.452 3.452H5.592a3.453 3.453 0 0 1-3.453-3.452V5.213a3.453 3.453 0 0 1 3.453-3.452h7.074a3.453 3.453 0 0 1 3.452 3.452zM12.666 0H5.592A5.22 5.22 0 0 0 .38 5.213v7.074A5.22 5.22 0 0 0 5.592 17.5h7.074a5.22 5.22 0 0 0 5.213-5.213V5.213A5.22 5.22 0 0 0 12.666 0z"/></g><g><path fill="#c5c5c5" d="M9.129 11.516a2.766 2.766 0 1 1 0-5.532 2.766 2.766 0 0 1 0 5.532zm0-7.292A4.531 4.531 0 0 0 4.603 8.75a4.531 4.531 0 0 0 4.526 4.526 4.531 4.531 0 0 0 4.526-4.526A4.531 4.531 0 0 0 9.13 4.224z"/></g><g><path fill="#c5c5c5" d="M12.58 4.258a1.085 1.085 0 1 1 2.168 0 1.085 1.085 0 0 1-2.169 0z"/></g></g></svg>