<svg xmlns="http://www.w3.org/2000/svg" width="17" height="15" viewBox="0 0 17 15"><g><g><path fill="#c5c5c5" d="M1.02 15.042h3.342V4.99H1.02zM2.715.146C1.57.146.822.896.822 1.882c0 .965.727 1.738 1.847 1.738h.023c1.165 0 1.89-.773 1.89-1.738C4.56.896 3.857.146 2.714.146zM16.41 9.279c0-3.088-1.648-4.524-3.847-4.524-1.775 0-2.568.977-3.012 1.66v.033H9.53l.022-.032V4.99H6.21c.045.943 0 10.05 0 10.05h3.342V9.43c0-.301.023-.6.111-.815.242-.6.791-1.222 1.714-1.222 1.21 0 1.693.922 1.693 2.273v5.377h3.341V9.279z"/></g></g></svg>