<svg xmlns="http://www.w3.org/2000/svg" width="138.001" height="35.001" viewBox="0 0 138.001 35.001">
    <g id="logo" data-name="logo" transform="translate(-160 -94)">
        <path id="Контур_213" data-name="Контур 213" d="M6.346-13.205A7.182,7.182,0,0,1,8.094-13a5.984,5.984,0,0,1,1.605.665,3.685,3.685,0,0,1,1.273,1.283A4.585,4.585,0,0,1,11.59-9.1H9.329Q8.987-11.248,6.5-11.248a3.123,3.123,0,0,0-1.872.5,1.611,1.611,0,0,0-.693,1.377,1.339,1.339,0,0,0,.513,1.121,3.786,3.786,0,0,0,1.577.608l1.634.323A6.269,6.269,0,0,1,10.564-6.1a2.921,2.921,0,0,1,.969,2.337A3.567,3.567,0,0,1,10.156-.845,5.588,5.588,0,0,1,6.536.266,5.985,5.985,0,0,1,2.651-.941,4.5,4.5,0,0,1,.988-4.218H3.249A2.639,2.639,0,0,0,4.323-2.413a3.858,3.858,0,0,0,2.346.665,3.22,3.22,0,0,0,1.853-.465A1.475,1.475,0,0,0,9.2-3.5q0-1.273-1.9-1.6L5.168-5.51Q1.52-6.194,1.52-9.177a3.627,3.627,0,0,1,1.321-2.917A5.264,5.264,0,0,1,6.346-13.205ZM18.772-9.272a3.688,3.688,0,0,1,2.85,1.178A4.45,4.45,0,0,1,22.7-4.959V0H20.52V-4.826a2.575,2.575,0,0,0-.589-1.815,2.092,2.092,0,0,0-1.615-.636A3.017,3.017,0,0,0,16-5.985V0h-2.2V-13.49H16v5.244A4.229,4.229,0,0,1,18.772-9.272Zm7.182,1.416A4.692,4.692,0,0,1,29.374-9.2a4.66,4.66,0,0,1,3.41,1.339,4.539,4.539,0,0,1,1.358,3.372,4.609,4.609,0,0,1-1.368,3.411,4.634,4.634,0,0,1-3.4,1.359,4.657,4.657,0,0,1-3.42-1.359,4.609,4.609,0,0,1-1.368-3.411A4.523,4.523,0,0,1,25.954-7.857ZM27.5-2.508a2.426,2.426,0,0,0,1.872.8,2.4,2.4,0,0,0,1.862-.8,2.836,2.836,0,0,0,.722-1.976,2.742,2.742,0,0,0-.722-1.938A2.424,2.424,0,0,0,29.374-7.2a2.446,2.446,0,0,0-1.881.779,2.742,2.742,0,0,0-.722,1.938A2.815,2.815,0,0,0,27.5-2.508ZM41.211-9.2a4.271,4.271,0,0,1,3.2,1.378,4.643,4.643,0,0,1,1.32,3.334,4.61,4.61,0,0,1-1.32,3.325,4.285,4.285,0,0,1-3.2,1.368,4.5,4.5,0,0,1-2.736-.836V4.5h-2.2V-8.987h2.2v.627A4.5,4.5,0,0,1,41.211-9.2Zm-.323,7.505a2.474,2.474,0,0,0,1.9-.827,2.807,2.807,0,0,0,.76-1.967,2.831,2.831,0,0,0-.76-1.986,2.474,2.474,0,0,0-1.9-.826,2.753,2.753,0,0,0-2.413,1.254v3.1A2.753,2.753,0,0,0,40.888-1.691Z" transform="translate(252.268 117.993)"/>
        <path id="Контур_212" data-name="Контур 212" d="M3.724-10.811v3.382H10.07V-5.32H3.724v3.211H10.83V0H1.444V-12.92H10.83v2.109ZM19.741-6.08V-3.9H13.2V-6.08Z" transform="translate(230 118)" fill="#fbb03b"/>
        <path id="noun_cloth_2129414" d="M437.579,459a1.344,1.344,0,0,1-1.3-.867l-3.26-8.556H418.69a2.69,2.69,0,0,1-2.69-2.692V426.692A2.691,2.691,0,0,1,418.7,424h18.843a1.346,1.346,0,0,1,1.218.773l4.07,8.65h16.252a2.69,2.69,0,0,1,2.69,2.692v20.192a2.691,2.691,0,0,1-2.7,2.692Zm-.895-32.308H418.7s0,6.731,0,20.192h27.494Zm7.41,9.423,5.432,11.542a1.346,1.346,0,0,1-.332,1.586l-8.073,7.064h17.952s0-6.731,0-20.192Zm-5.986,19.251,6.617-5.79H435.9Z" transform="translate(-256 -330)"/>
    </g>
</svg>