<svg xmlns="http://www.w3.org/2000/svg" width="22" height="22" viewBox="0 0 22 22"><g><g><path d="M3.673 3.677a6.253 6.253 0 0 1 4.452-1.844c1.681 0 3.262.655 4.451 1.844a6.303 6.303 0 0 1 0 8.903 6.303 6.303 0 0 1-8.903 0 6.303 6.303 0 0 1 0-8.903zm4.452 12.576a8.109 8.109 0 0 0 5.06-1.768l7.247 7.246a.914.914 0 0 0 1.296 0 .916.916 0 0 0 0-1.296l-7.246-7.246c2.541-3.188 2.34-7.858-.61-10.808A8.075 8.075 0 0 0 8.126 0a8.074 8.074 0 0 0-5.748 2.381c-3.17 3.17-3.17 8.326 0 11.495a8.102 8.102 0 0 0 5.748 2.377z"/></g></g></svg>