<svg xmlns="http://www.w3.org/2000/svg" width="10" height="10" viewBox="0 0 10 10"><g><g><path fill="#fbb03b" d="M9.842 4.046c-.04-.123-.14-.206-.437-.234l-2.723-.253c-.162-.015-.25-.08-.314-.228L5.286.82C5.168.544 5.058.476 4.928.476c-.13 0-.239.068-.357.344L3.489 3.33c-.064.15-.153.214-.314.229l-2.723.252c-.298.028-.397.11-.437.234-.04.123-.009.249.216.447l2.054 1.804c.122.107.156.212.12.37l-.6 2.667c-.067.293-.018.413.086.489.105.076.234.085.492-.068l2.351-1.396c.14-.083.25-.083.389 0l2.35 1.396c.258.153.388.144.492.068.105-.076.153-.196.088-.489L7.45 6.667c-.035-.158-.001-.263.12-.37l2.055-1.804c.225-.198.256-.324.216-.447z"/></g></g></svg>