<svg xmlns="http://www.w3.org/2000/svg" width="20" height="16" viewBox="0 0 20 16"><g><g><path fill="#c5c5c5" d="M19.331 1.924a7.58 7.58 0 0 1-2.18.598 3.812 3.812 0 0 0 1.67-2.098 7.653 7.653 0 0 1-2.413.921 3.796 3.796 0 0 0-6.468 3.46A10.777 10.777 0 0 1 2.116.84a3.767 3.767 0 0 0-.513 1.908c0 1.317.67 2.479 1.688 3.159a3.796 3.796 0 0 1-1.72-.477v.048A3.8 3.8 0 0 0 4.617 9.2a3.845 3.845 0 0 1-1 .133c-.245 0-.482-.025-.714-.07a3.798 3.798 0 0 0 3.545 2.636 7.616 7.616 0 0 1-4.714 1.622c-.307 0-.609-.019-.906-.052a10.73 10.73 0 0 0 5.819 1.708c6.982 0 10.8-5.784 10.8-10.8l-.013-.492a7.58 7.58 0 0 0 1.898-1.96z"/></g></g></svg>