<svg xmlns="http://www.w3.org/2000/svg" width="20" height="14" viewBox="0 0 20 14"><g><g><path fill="#c5c5c5" d="M7.547 10.66V3.342l6.1 3.66zm11.37-9.076C18.387.643 17.813.47 16.643.404 15.475.323 12.536.29 9.99.29c-2.551 0-5.491.033-6.659.111-1.167.067-1.743.24-2.278 1.182-.545.941-.825 2.561-.825 5.413v.01c0 2.84.28 4.473.825 5.403.535.942 1.11 1.113 2.277 1.192 1.169.069 4.109.109 6.66.109 2.546 0 5.485-.04 6.655-.108 1.17-.079 1.744-.25 2.274-1.191.55-.931.828-2.564.828-5.404v-.006V7c0-2.854-.278-4.474-.83-5.415z"/></g></g></svg>